<svg width="299" height="116" viewBox="0 0 299 116" fill="none" xmlns="http://www.w3.org/2000/svg">
<rect x="2" y="2" width="295" height="112" rx="22" stroke="#0051AE" stroke-width="4" stroke-linejoin="round"/>
<g clip-path="url(#clip0_53_80)">
<path opacity="0.5" d="M66.2105 32.3473L52.9437 79.3458C52.8762 79.5591 52.6063 79.6231 52.4489 79.4738L43.5669 71.047L50.2228 47.4943C50.2903 47.281 50.0879 47.089 49.863 47.153L25.0383 53.4679L16.2012 45.0837C16.0438 44.9343 16.1113 44.6783 16.3361 44.6143L65.8507 32.006C66.0756 31.9633 66.278 32.1553 66.2105 32.3473Z" fill="#FBFBBF"/>
<path opacity="0.5" d="M43.5664 71.0465L40.1486 83.2068C40.0811 83.4202 39.8113 83.4841 39.6538 83.3348L12.0858 57.2008C11.9284 57.0515 11.9958 56.7955 12.2207 56.7315L25.0379 53.4674L43.5664 71.0465Z" fill="white"/>
<path d="M50.2217 47.494L43.5657 71.0466L25.0372 53.4675L49.8619 47.1526C50.0868 47.0887 50.2891 47.2807 50.2217 47.494Z" fill="#FBFFBF"/>
</g>
<path d="M87.9653 71.44C84.9253 71.44 82.3253 70.84 80.1653 69.64C78.0053 68.44 76.3386 66.76 75.1653 64.6C74.0186 62.4133 73.4453 59.84 73.4453 56.88C73.4453 54.6667 73.7653 52.68 74.4053 50.92C75.072 49.1333 76.032 47.6133 77.2853 46.36C78.5386 45.08 80.0586 44.0933 81.8453 43.4C83.6586 42.7067 85.6986 42.36 87.9653 42.36C89.2986 42.36 90.6453 42.5333 92.0053 42.88C93.392 43.2 94.592 43.6667 95.6053 44.28C96.272 44.6533 96.7253 45.12 96.9653 45.68C97.2053 46.24 97.272 46.8 97.1653 47.36C97.0853 47.92 96.8586 48.4 96.4853 48.8C96.1386 49.2 95.6986 49.4533 95.1653 49.56C94.632 49.6667 94.032 49.5467 93.3653 49.2C92.5653 48.72 91.7253 48.3733 90.8453 48.16C89.9653 47.9467 89.072 47.84 88.1653 47.84C86.3786 47.84 84.872 48.2 83.6453 48.92C82.4453 49.6133 81.5386 50.6267 80.9253 51.96C80.312 53.2933 80.0053 54.9333 80.0053 56.88C80.0053 58.8 80.312 60.44 80.9253 61.8C81.5386 63.16 82.4453 64.2 83.6453 64.92C84.872 65.6133 86.3786 65.96 88.1653 65.96C89.0186 65.96 89.8853 65.8533 90.7653 65.64C91.672 65.4267 92.5386 65.0933 93.3653 64.64C94.0586 64.2933 94.672 64.1733 95.2053 64.28C95.7653 64.36 96.2186 64.6 96.5653 65C96.9386 65.3733 97.1653 65.8267 97.2453 66.36C97.352 66.8933 97.2986 67.4267 97.0853 67.96C96.872 68.4933 96.472 68.9467 95.8853 69.32C94.8986 69.9867 93.6853 70.5067 92.2453 70.88C90.8053 71.2533 89.3786 71.44 87.9653 71.44ZM108.189 71.44C105.816 71.44 104.042 70.7867 102.869 69.48C101.696 68.1467 101.109 66.1733 101.109 63.56V45.52C101.109 44.5067 101.362 43.7467 101.869 43.24C102.402 42.7067 103.162 42.44 104.149 42.44C105.109 42.44 105.842 42.7067 106.349 43.24C106.882 43.7467 107.149 44.5067 107.149 45.52V63.32C107.149 64.4133 107.376 65.2267 107.829 65.76C108.309 66.2667 108.936 66.52 109.709 66.52C109.922 66.52 110.122 66.5067 110.309 66.48C110.496 66.4533 110.696 66.44 110.909 66.44C111.336 66.3867 111.629 66.52 111.789 66.84C111.976 67.1333 112.069 67.7333 112.069 68.64C112.069 69.44 111.909 70.0533 111.589 70.48C111.269 70.88 110.776 71.1467 110.109 71.28C109.842 71.3067 109.536 71.3333 109.189 71.36C108.842 71.4133 108.509 71.44 108.189 71.44ZM117.469 71.32C116.483 71.32 115.723 71.04 115.189 70.48C114.683 69.8933 114.429 69.08 114.429 68.04V54.36C114.429 53.2933 114.683 52.48 115.189 51.92C115.723 51.3333 116.483 51.04 117.469 51.04C118.429 51.04 119.163 51.3333 119.669 51.92C120.203 52.48 120.469 53.2933 120.469 54.36V68.04C120.469 69.08 120.216 69.8933 119.709 70.48C119.203 71.04 118.456 71.32 117.469 71.32ZM117.469 47.76C116.349 47.76 115.483 47.5067 114.869 47C114.283 46.4667 113.989 45.72 113.989 44.76C113.989 43.7733 114.283 43.0267 114.869 42.52C115.483 41.9867 116.349 41.72 117.469 41.72C118.589 41.72 119.443 41.9867 120.029 42.52C120.616 43.0267 120.909 43.7733 120.909 44.76C120.909 45.72 120.616 46.4667 120.029 47C119.443 47.5067 118.589 47.76 117.469 47.76ZM134.693 71.44C132.559 71.44 130.693 71.0267 129.093 70.2C127.519 69.3467 126.306 68.1467 125.452 66.6C124.599 65.0533 124.173 63.2267 124.173 61.12C124.173 59.5467 124.413 58.1333 124.893 56.88C125.373 55.6267 126.066 54.56 126.973 53.68C127.906 52.8 129.026 52.1333 130.333 51.68C131.639 51.2 133.093 50.96 134.693 50.96C135.519 50.96 136.399 51.0667 137.333 51.28C138.266 51.4667 139.186 51.8 140.093 52.28C140.626 52.52 140.986 52.8667 141.173 53.32C141.386 53.7467 141.466 54.2 141.413 54.68C141.359 55.1333 141.186 55.5467 140.893 55.92C140.626 56.2667 140.279 56.5067 139.853 56.64C139.426 56.7467 138.946 56.6667 138.413 56.4C137.906 56.1067 137.373 55.8933 136.813 55.76C136.279 55.6267 135.773 55.56 135.293 55.56C134.493 55.56 133.786 55.6933 133.173 55.96C132.559 56.2 132.039 56.56 131.613 57.04C131.213 57.4933 130.893 58.0667 130.653 58.76C130.439 59.4533 130.333 60.2533 130.333 61.16C130.333 62.92 130.759 64.3067 131.613 65.32C132.493 66.3067 133.719 66.8 135.293 66.8C135.773 66.8 136.279 66.7467 136.813 66.64C137.346 66.5067 137.879 66.2933 138.413 66C138.946 65.7333 139.426 65.6667 139.853 65.8C140.279 65.9333 140.613 66.1867 140.853 66.56C141.119 66.9067 141.266 67.32 141.293 67.8C141.346 68.2533 141.266 68.7067 141.053 69.16C140.866 69.5867 140.519 69.92 140.013 70.16C139.106 70.6133 138.199 70.9333 137.293 71.12C136.386 71.3333 135.519 71.44 134.693 71.44ZM147.274 71.36C146.287 71.36 145.527 71.0933 144.994 70.56C144.487 70.0267 144.234 69.2667 144.234 68.28V45.52C144.234 44.5067 144.487 43.7467 144.994 43.24C145.527 42.7067 146.287 42.44 147.274 42.44C148.234 42.44 148.967 42.7067 149.474 43.24C150.007 43.7467 150.274 44.5067 150.274 45.52V59.48H150.354L156.154 53.04C156.741 52.3733 157.274 51.88 157.754 51.56C158.261 51.2133 158.927 51.04 159.754 51.04C160.581 51.04 161.207 51.2533 161.634 51.68C162.087 52.1067 162.314 52.6267 162.314 53.24C162.341 53.8267 162.087 54.4267 161.554 55.04L155.434 61.88V59.6L162.234 67.44C162.741 68.0533 162.954 68.6667 162.874 69.28C162.821 69.8933 162.554 70.4 162.074 70.8C161.594 71.1733 160.981 71.36 160.234 71.36C159.327 71.36 158.594 71.1867 158.034 70.84C157.501 70.4933 156.954 69.96 156.394 69.24L150.354 62.52H150.274V68.28C150.274 70.3333 149.274 71.36 147.274 71.36ZM188.311 71.44C187.191 71.44 186.044 71.3467 184.871 71.16C183.724 71 182.617 70.76 181.551 70.44C180.511 70.12 179.577 69.72 178.751 69.24C178.164 68.92 177.751 68.5067 177.511 68C177.271 67.4667 177.177 66.9333 177.231 66.4C177.311 65.8667 177.511 65.4 177.831 65C178.177 64.5733 178.604 64.3067 179.111 64.2C179.644 64.0667 180.231 64.16 180.871 64.48C181.964 65.0933 183.151 65.5467 184.431 65.84C185.737 66.1333 187.031 66.28 188.311 66.28C190.257 66.28 191.644 65.9867 192.471 65.4C193.297 64.7867 193.711 64.0267 193.711 63.12C193.711 62.3467 193.417 61.7333 192.831 61.28C192.244 60.8267 191.217 60.44 189.751 60.12L185.231 59.16C182.671 58.6267 180.764 57.72 179.511 56.44C178.284 55.1333 177.671 53.4267 177.671 51.32C177.671 49.9867 177.951 48.7733 178.511 47.68C179.071 46.5867 179.857 45.64 180.871 44.84C181.884 44.04 183.084 43.4267 184.471 43C185.884 42.5733 187.431 42.36 189.111 42.36C190.604 42.36 192.071 42.5467 193.511 42.92C194.951 43.2667 196.217 43.7867 197.311 44.48C197.844 44.8 198.204 45.2133 198.391 45.72C198.604 46.2 198.671 46.6933 198.591 47.2C198.537 47.68 198.337 48.1067 197.991 48.48C197.671 48.8533 197.257 49.0933 196.751 49.2C196.244 49.3067 195.631 49.1867 194.911 48.84C194.031 48.3867 193.097 48.0533 192.111 47.84C191.124 47.6267 190.111 47.52 189.071 47.52C187.951 47.52 186.991 47.6667 186.191 47.96C185.417 48.2533 184.817 48.6667 184.391 49.2C183.991 49.7333 183.791 50.3467 183.791 51.04C183.791 51.8133 184.071 52.44 184.631 52.92C185.191 53.4 186.164 53.7867 187.551 54.08L192.071 55.04C194.684 55.6 196.631 56.5067 197.911 57.76C199.191 58.9867 199.831 60.6133 199.831 62.64C199.831 63.9733 199.564 65.1867 199.031 66.28C198.497 67.3467 197.724 68.2667 196.711 69.04C195.697 69.8133 194.484 70.4133 193.071 70.84C191.657 71.24 190.071 71.44 188.311 71.44ZM209.976 71.44C208.536 71.44 207.242 71.16 206.096 70.6C204.949 70.04 204.056 69.28 203.416 68.32C202.776 67.36 202.456 66.28 202.456 65.08C202.456 63.64 202.829 62.5067 203.576 61.68C204.322 60.8267 205.536 60.2267 207.216 59.88C208.896 59.5067 211.122 59.32 213.896 59.32H216.016V62.44H213.936C212.576 62.44 211.469 62.52 210.616 62.68C209.789 62.8133 209.189 63.0533 208.816 63.4C208.469 63.7467 208.296 64.2267 208.296 64.84C208.296 65.5867 208.549 66.2 209.056 66.68C209.589 67.16 210.349 67.4 211.336 67.4C212.109 67.4 212.789 67.2267 213.376 66.88C213.989 66.5067 214.469 66.0133 214.816 65.4C215.162 64.76 215.336 64.04 215.336 63.24V58.64C215.336 57.4667 215.069 56.64 214.536 56.16C214.002 55.6533 213.096 55.4 211.816 55.4C211.096 55.4 210.309 55.4933 209.456 55.68C208.629 55.84 207.709 56.12 206.696 56.52C206.109 56.7867 205.589 56.8533 205.136 56.72C204.682 56.56 204.336 56.2933 204.096 55.92C203.856 55.52 203.736 55.0933 203.736 54.64C203.736 54.16 203.869 53.7067 204.136 53.28C204.402 52.8267 204.842 52.4933 205.456 52.28C206.709 51.7733 207.882 51.4267 208.976 51.24C210.096 51.0533 211.122 50.96 212.056 50.96C214.109 50.96 215.789 51.2667 217.096 51.88C218.429 52.4667 219.429 53.3867 220.096 54.64C220.762 55.8667 221.096 57.4533 221.096 59.4V68.28C221.096 69.2667 220.856 70.0267 220.376 70.56C219.896 71.0933 219.202 71.36 218.296 71.36C217.389 71.36 216.682 71.0933 216.176 70.56C215.696 70.0267 215.456 69.2667 215.456 68.28V66.8L215.736 67.04C215.576 67.9467 215.229 68.7333 214.696 69.4C214.189 70.04 213.536 70.5467 212.736 70.92C211.936 71.2667 211.016 71.44 209.976 71.44ZM232.681 71.44C230.308 71.44 228.535 70.7867 227.361 69.48C226.188 68.1467 225.601 66.1733 225.601 63.56V45.52C225.601 44.5067 225.855 43.7467 226.361 43.24C226.895 42.7067 227.655 42.44 228.641 42.44C229.601 42.44 230.335 42.7067 230.841 43.24C231.375 43.7467 231.641 44.5067 231.641 45.52V63.32C231.641 64.4133 231.868 65.2267 232.321 65.76C232.801 66.2667 233.428 66.52 234.201 66.52C234.415 66.52 234.615 66.5067 234.801 66.48C234.988 66.4533 235.188 66.44 235.401 66.44C235.828 66.3867 236.121 66.52 236.281 66.84C236.468 67.1333 236.561 67.7333 236.561 68.64C236.561 69.44 236.401 70.0533 236.081 70.48C235.761 70.88 235.268 71.1467 234.601 71.28C234.335 71.3067 234.028 71.3333 233.681 71.36C233.335 71.4133 233.001 71.44 232.681 71.44ZM245.562 71.44C244.122 71.44 242.828 71.16 241.682 70.6C240.535 70.04 239.642 69.28 239.002 68.32C238.362 67.36 238.042 66.28 238.042 65.08C238.042 63.64 238.415 62.5067 239.162 61.68C239.908 60.8267 241.122 60.2267 242.802 59.88C244.482 59.5067 246.708 59.32 249.482 59.32H251.602V62.44H249.522C248.162 62.44 247.055 62.52 246.202 62.68C245.375 62.8133 244.775 63.0533 244.402 63.4C244.055 63.7467 243.882 64.2267 243.882 64.84C243.882 65.5867 244.135 66.2 244.642 66.68C245.175 67.16 245.935 67.4 246.922 67.4C247.695 67.4 248.375 67.2267 248.962 66.88C249.575 66.5067 250.055 66.0133 250.402 65.4C250.748 64.76 250.922 64.04 250.922 63.24V58.64C250.922 57.4667 250.655 56.64 250.122 56.16C249.588 55.6533 248.682 55.4 247.402 55.4C246.682 55.4 245.895 55.4933 245.042 55.68C244.215 55.84 243.295 56.12 242.282 56.52C241.695 56.7867 241.175 56.8533 240.722 56.72C240.268 56.56 239.922 56.2933 239.682 55.92C239.442 55.52 239.322 55.0933 239.322 54.64C239.322 54.16 239.455 53.7067 239.722 53.28C239.988 52.8267 240.428 52.4933 241.042 52.28C242.295 51.7733 243.468 51.4267 244.562 51.24C245.682 51.0533 246.708 50.96 247.642 50.96C249.695 50.96 251.375 51.2667 252.682 51.88C254.015 52.4667 255.015 53.3867 255.682 54.64C256.348 55.8667 256.682 57.4533 256.682 59.4V68.28C256.682 69.2667 256.442 70.0267 255.962 70.56C255.482 71.0933 254.788 71.36 253.882 71.36C252.975 71.36 252.268 71.0933 251.762 70.56C251.282 70.0267 251.042 69.2667 251.042 68.28V66.8L251.322 67.04C251.162 67.9467 250.815 68.7333 250.282 69.4C249.775 70.04 249.122 70.5467 248.322 70.92C247.522 71.2667 246.602 71.44 245.562 71.44ZM268.707 71.44C267.534 71.44 266.321 71.3333 265.067 71.12C263.841 70.9067 262.721 70.5467 261.707 70.04C261.174 69.7733 260.787 69.44 260.547 69.04C260.334 68.6133 260.241 68.1867 260.267 67.76C260.294 67.3333 260.427 66.9467 260.667 66.6C260.934 66.2533 261.267 66.0267 261.667 65.92C262.094 65.7867 262.561 65.8267 263.067 66.04C264.161 66.4933 265.161 66.8133 266.067 67C266.974 67.1867 267.867 67.28 268.747 67.28C269.894 67.28 270.721 67.1067 271.227 66.76C271.761 66.3867 272.027 65.9067 272.027 65.32C272.027 64.7867 271.854 64.3867 271.507 64.12C271.161 63.8533 270.654 63.6667 269.987 63.56L265.787 62.8C264.134 62.5067 262.854 61.9067 261.947 61C261.067 60.0667 260.627 58.88 260.627 57.44C260.627 56.1067 261.001 54.96 261.747 54C262.494 53.0133 263.521 52.2667 264.827 51.76C266.161 51.2267 267.667 50.96 269.347 50.96C270.547 50.96 271.654 51.0667 272.667 51.28C273.681 51.4933 274.654 51.84 275.587 52.32C276.067 52.56 276.401 52.88 276.587 53.28C276.801 53.68 276.867 54.0933 276.787 54.52C276.734 54.9467 276.574 55.3333 276.307 55.68C276.041 56.0267 275.694 56.2533 275.267 56.36C274.867 56.4667 274.401 56.4133 273.867 56.2C273.014 55.8 272.227 55.52 271.507 55.36C270.787 55.1733 270.094 55.08 269.427 55.08C268.227 55.08 267.361 55.28 266.827 55.68C266.294 56.0533 266.027 56.5333 266.027 57.12C266.027 57.5733 266.174 57.96 266.467 58.28C266.787 58.5733 267.267 58.7733 267.907 58.88L272.107 59.64C273.841 59.9333 275.161 60.52 276.067 61.4C276.974 62.2533 277.427 63.4267 277.427 64.92C277.427 66.9467 276.627 68.5467 275.027 69.72C273.454 70.8667 271.347 71.44 268.707 71.44Z" fill="white"/>
<path d="M136.099 95.12C135.849 95.12 135.629 95.055 135.439 94.925C135.259 94.795 135.109 94.595 134.989 94.325L132.604 88.79C132.514 88.57 132.479 88.365 132.499 88.175C132.529 87.985 132.619 87.835 132.769 87.725C132.929 87.605 133.144 87.545 133.414 87.545C133.644 87.545 133.829 87.6 133.969 87.71C134.109 87.81 134.234 88.005 134.344 88.295L136.369 93.35H135.919L138.004 88.28C138.114 88 138.239 87.81 138.379 87.71C138.529 87.6 138.729 87.545 138.979 87.545C139.199 87.545 139.374 87.605 139.504 87.725C139.634 87.835 139.714 87.985 139.744 88.175C139.774 88.355 139.739 88.555 139.639 88.775L137.209 94.325C137.099 94.595 136.949 94.795 136.759 94.925C136.579 95.055 136.359 95.12 136.099 95.12ZM146.477 95C146.217 95 146.012 94.93 145.862 94.79C145.722 94.64 145.652 94.44 145.652 94.19C145.652 93.93 145.722 93.735 145.862 93.605C146.012 93.475 146.217 93.41 146.477 93.41H148.157V86.045H149.087L146.882 87.38C146.692 87.49 146.512 87.535 146.342 87.515C146.182 87.485 146.042 87.415 145.922 87.305C145.812 87.185 145.737 87.045 145.697 86.885C145.657 86.725 145.667 86.565 145.727 86.405C145.797 86.235 145.927 86.095 146.117 85.985L148.187 84.74C148.387 84.62 148.587 84.52 148.787 84.44C148.987 84.35 149.172 84.305 149.342 84.305C149.552 84.305 149.727 84.365 149.867 84.485C150.007 84.595 150.077 84.78 150.077 85.04V93.41H151.607C151.867 93.41 152.067 93.475 152.207 93.605C152.357 93.735 152.432 93.93 152.432 94.19C152.432 94.45 152.357 94.65 152.207 94.79C152.067 94.93 151.867 95 151.607 95H146.477ZM155.006 95.075C154.666 95.075 154.391 94.97 154.181 94.76C153.981 94.55 153.881 94.28 153.881 93.95C153.881 93.63 153.981 93.37 154.181 93.17C154.391 92.96 154.666 92.855 155.006 92.855C155.356 92.855 155.626 92.96 155.816 93.17C156.016 93.37 156.116 93.63 156.116 93.95C156.116 94.28 156.016 94.55 155.816 94.76C155.626 94.97 155.356 95.075 155.006 95.075ZM161.352 95.15C160.102 95.15 159.147 94.68 158.487 93.74C157.827 92.79 157.497 91.44 157.497 89.69C157.497 88.51 157.642 87.52 157.932 86.72C158.232 85.91 158.667 85.3 159.237 84.89C159.817 84.48 160.522 84.275 161.352 84.275C162.612 84.275 163.567 84.735 164.217 85.655C164.877 86.575 165.207 87.915 165.207 89.675C165.207 90.845 165.057 91.84 164.757 92.66C164.467 93.47 164.037 94.09 163.467 94.52C162.897 94.94 162.192 95.15 161.352 95.15ZM161.352 93.575C162.032 93.575 162.532 93.26 162.852 92.63C163.182 92 163.347 91.015 163.347 89.675C163.347 88.335 163.182 87.365 162.852 86.765C162.532 86.155 162.032 85.85 161.352 85.85C160.682 85.85 160.182 86.155 159.852 86.765C159.522 87.365 159.357 88.335 159.357 89.675C159.357 91.015 159.522 92 159.852 92.63C160.182 93.26 160.682 93.575 161.352 93.575Z" fill="white"/>
<defs>
<clipPath id="clip0_53_80">
<rect width="55" height="51.6154" fill="white" transform="translate(12 32)"/>
</clipPath>
</defs>
</svg>
