<svg width="55" height="52" viewBox="0 0 55 52" fill="none" xmlns="http://www.w3.org/2000/svg">
<g clip-path="url(#clip0_53_81)">
<path opacity="0.5" d="M54.2105 0.34735L40.9437 47.3458C40.8762 47.5591 40.6063 47.6231 40.4489 47.4738L31.5669 39.047L38.2228 15.4943C38.2903 15.281 38.0879 15.089 37.863 15.153L13.0383 21.4679L4.2012 13.0837C4.0438 12.9343 4.11126 12.6783 4.33612 12.6143L53.8507 0.00600788C54.0756 -0.0366598 54.278 0.155345 54.2105 0.34735Z" fill="#FBFBBF"/>
<path opacity="0.5" d="M31.5664 39.0465L28.1486 51.2068C28.0811 51.4202 27.8113 51.4841 27.6538 51.3348L0.085784 25.2008C-0.0716191 25.0515 -0.00416081 24.7955 0.220702 24.7315L13.0379 21.4674L31.5664 39.0465Z" fill="white"/>
<path d="M38.2217 15.494L31.5657 39.0466L13.0372 21.4675L37.8619 15.1526C38.0868 15.0887 38.2891 15.2807 38.2217 15.494Z" fill="#FBFFBF"/>
</g>
<defs>
<clipPath id="clip0_53_81">
<rect width="55" height="51.6154" fill="white"/>
</clipPath>
</defs>
</svg>
